# xmcd
#
# Track frame offsets: 
#        150
#        16299
#        30590
#        48009
#        76728
#        90849
#        106535
#        130167
#        153699
#        171977
#        188846
#        205260
#        246829
#
# Disc length: 3600 seconds
#
# Revision: 0
# Processed by: cddbd v1.5.2PL0 Copyright (c) Steve Scherf et al.
# Submitted via: ExactAudioCopy v1.3
#
DISCID=920e0e0d
DTITLE=Anthony Geraci - Why Did You Have To Go
DYEAR=2018
DGENRE=Blues
TTITLE0=Why Did You Have To Go
TTITLE1=Don't The Grass Look Greener
TTITLE2=Fly On The Wall
TTITLE3=Angelina, Angelina
TTITLE4=Long Way Home
TTITLE5=Two Steps Away From The Blues
TTITLE6=Time's Running Out
TTITLE7=Baptized In The River Yazoo
TTITLE8=Too Many Bad Decisions
TTITLE9=What About Me
TTITLE10=Hand You Your Walking Shoes
TTITLE11=My Last Good-Bye
TTITLE12=A Minor, Affair
EXTD=
EXTT0=
EXTT1=
EXTT2=
EXTT3=
EXTT4=
EXTT5=
EXTT6=
EXTT7=
EXTT8=
EXTT9=
EXTT10=
EXTT11=
EXTT12=
PLAYORDER=
